<svg xmlns="http://www.w3.org/2000/svg" fill="none" viewBox="0 0 25 25" id="Logout-1--Streamline-Core" height={25}
    width={25}>
    <desc>{"Logout 1 Streamline Icon: https://streamlinehq.com"}</desc>
    <g id="logout-1--arrow-exit-frame-leave-logout-rectangle-right">
        <path id="Union" fill="#000000" fillRule="evenodd"
            d="M0 2.678571428571429C0 1.1992375 1.1992375 0 2.678571428571429 0h12.5c1.4793392857142857 0 2.678571428571429 1.1992375 2.678571428571429 2.678571428571429v3.461839285714286c-0.7190000000000001 0.5756964285714287 -1.1947678571428573 1.414107142857143 -1.311375 2.341696428571429H10.267857142857144c-2.219 0 -4.017857142857143 1.7988392857142859 -4.017857142857143 4.017857142857143 0 2.219 1.798857142857143 4.017857142857143 4.017857142857143 4.017857142857143h6.2779107142857145c0.11657142857142859 0.927607142857143 0.5923571428571429 1.7661071428571429 1.311375 2.341821428571429V22.321428571428573c0 1.4792857142857143 -1.1992321428571429 2.678571428571429 -2.678571428571429 2.678571428571429h-12.5C1.1992375 25 0 23.80071428571429 0 22.321428571428573v-19.642857142857142Zm19.576785714285712 5.012696428571429c-0.5005357142857143 0.20730357142857145 -0.8267857142857143 0.6956607142857144 -0.8267857142857143 1.2373392857142858v1.7857142857142858H10.267857142857144c-0.9862142857142857 0 -1.7857142857142858 0.7995000000000001 -1.7857142857142858 1.7857142857142858 0 0.9862321428571428 0.7995000000000001 1.7857142857142858 1.7857142857142858 1.7857142857142858h8.482142857142858v1.7857142857142858c0 0.5416964285714286 0.32625000000000004 1.0300535714285715 0.8267857142857143 1.2373392857142858 0.500357142857143 0.20730357142857145 1.0764285714285715 0.09271428571428572 1.4594642857142859 -0.29032142857142856l3.5714285714285716 -3.5714285714285716c0.5230357142857143 -0.5230178571428571 0.5230357142857143 -1.371017857142857 0 -1.8940357142857143l-3.5714285714285716 -3.5714285714285716c-0.3830357142857143 -0.3830357142857143 -0.9591071428571429 -0.4976071428571429 -1.4594642857142859 -0.29032142857142856Z"
            clipRule="evenodd" strokeWidth={1} />
    </g>
</svg>